<svg xmlns="http://www.w3.org/2000/svg" x="0px" y="0px" viewBox="0 0 254.2 253" style="enable-background:new 0 0 254.2 253;" xml:space="preserve">
    <path d="M0,120.1c0.4-1.4,0.6-2.8,0.5-4.2c1.5-18.2,7-35.8,16-51.7c0.1-0.1,0.2-0.2,0.3-0.5 c5.7,7.8,13.7,13.7,22.9,16.7C26.4,106,23.7,132.4,33,159.7c7.3,21.4,20.7,38.2,39.6,50.6c45.5,29.7,106.4,16.8,136-28.7 s16.8-106.4-28.7-136C155.6,29.7,125.4,25.5,97.6,34C96.5,23.9,92.1,14.4,85,7.2c5.5-1.9,11.1-3.5,16.8-4.7 c5.3-1.1,10.7-1.8,16.1-2.2c0.3,0,0.7,0.1,0.8-0.3h15.8c1.2,0.4,2.4,0.5,3.6,0.5c20.4,1.8,40,8.5,57.2,19.5 c45.8,29.2,68,84.7,54.7,137c-13.3,52.7-58.7,91.1-112.9,95.5c-1.5-0.1-2.9,0.1-4.3,0.5h-1.6c-0.1-0.3-0.4-0.3-0.7-0.3h-7.2 c-0.3,0-0.6,0-0.7,0.3h-3.1c-0.2-0.5-0.7-0.3-1.1-0.3c-62.6-4.2-112.7-53.5-118-116c0.1-1.3-0.1-2.5-0.5-3.7v-2.8 c0.6-1.1,0.2-2.2,0.2-3.3c0-1.3,0.4-2.6-0.2-3.9L0,120.1z"/>
    <path d="M122.7,253c0.1-0.3,0.4-0.3,0.7-0.3h7.2c0.3,0,0.6,0,0.7,0.3H122.7z"/>
    <path d="M0,122.9c0.6,1.3,0.2,2.6,0.2,3.9c0,1.1,0.4,2.3-0.2,3.3L0,122.9z"/>
    <path d="M193.5,126.2c0,37.3-30.4,67.3-68.1,67.3c-36.8,0-67.2-30.5-67.2-67.5c0.5-37.4,31.2-67.2,68.6-66.7 C163.4,59.9,193,89.6,193.5,126.2L193.5,126.2z"/>
    <path d="M53.3,74c-19.8,0.3-36.1-15.4-36.4-35.2C16.6,19.1,32.3,2.8,52.1,2.4c0.4,0,0.9,0,1.3,0 c20.6,0,35.7,16.6,35.8,36.2C89.3,58.3,72.9,74.1,53.3,74z"/>
</svg>
